<?xml version="1.0" standalone="no"?>
<!DOCTYPE svg PUBLIC "-//W3C//DTD SVG 20010904//EN"
 "http://www.w3.org/TR/2001/REC-SVG-20010904/DTD/svg10.dtd">
<svg version="1.0" xmlns="http://www.w3.org/2000/svg"
 width="1100.000000pt" height="685.000000pt" viewBox="0 0 1100.000000 685.000000"
 preserveAspectRatio="xMidYMid meet">
<metadata>
Created by potrace 1.16, written by Peter Selinger 2001-2019
</metadata>
<g transform="translate(0.000000,685.000000) scale(0.100000,-0.100000)"
fill="#000000" stroke="none">
<path d="M6885 5564 c-44 -8 -125 -26 -179 -41 l-99 -26 -111 21 c-304 59
-489 55 -741 -13 -227 -61 -191 -59 -359 -23 -126 26 -175 31 -291 32 -134 0
-148 -2 -313 -43 l-173 -44 -112 38 c-101 35 -122 39 -212 39 -70 0 -140 -9
-233 -28 l-133 -27 -74 30 c-170 71 -298 78 -531 30 -142 -30 -156 -31 -297
-24 -125 5 -155 4 -199 -11 -68 -22 -129 -83 -159 -160 -28 -72 -30 -182 -11
-469 7 -104 17 -354 22 -555 17 -662 58 -926 171 -1094 65 -98 133 -157 244
-211 148 -73 246 -97 410 -100 l140 -3 -5 -68 c-10 -138 -2 -373 18 -544 12
-96 26 -220 32 -275 15 -135 57 -401 76 -482 8 -37 26 -125 39 -197 14 -72 34
-164 45 -204 23 -82 88 -218 116 -244 24 -21 129 -73 213 -105 123 -47 283
-39 466 22 49 16 103 25 180 28 125 6 207 31 306 92 l60 37 136 -28 c117 -23
152 -26 242 -21 116 7 247 40 334 83 48 25 55 26 111 16 35 -7 85 -27 125 -50
161 -96 238 -119 355 -108 199 18 400 143 527 326 98 141 116 181 173 374 139
467 206 1155 141 1451 -6 28 -3 32 42 55 42 22 59 25 158 25 105 0 113 2 180
34 129 63 228 194 274 360 11 40 30 155 41 255 24 212 36 284 56 346 17 54
103 422 140 605 38 186 43 363 15 514 -11 63 -28 125 -37 138 -21 33 -134 104
-216 137 -123 49 -286 53 -451 11 -54 -14 -59 -13 -90 5 -36 22 -79 25 -125 9
-27 -9 -35 -7 -64 14 -18 14 -58 37 -88 53 -68 34 -167 40 -285 18z m195 -207
c21 -7 41 -25 53 -45 18 -31 19 -43 9 -198 -5 -91 -12 -168 -16 -171 -8 -8
-329 -21 -339 -13 -4 3 -16 40 -28 81 -24 86 -67 171 -116 229 -20 23 -32 44
-29 48 4 4 73 23 154 44 155 39 248 47 312 25z m-710 -18 c169 -27 292 -156
345 -360 24 -89 16 -262 -14 -340 -50 -130 -182 -220 -276 -189 -72 24 -130
130 -140 257 -2 25 -7 48 -10 51 -5 5 -153 -43 -163 -53 -2 -2 -1 -9 3 -15 7
-12 40 -10 91 5 19 6 22 0 34 -57 33 -160 139 -262 252 -244 88 14 200 104
238 189 27 60 50 154 50 200 l0 39 168 -2 c208 -2 192 -4 192 20 0 18 -7 20
-67 21 -38 1 -117 5 -178 9 l-110 7 85 2 c143 4 233 11 267 22 36 11 34 5 50
223 l8 109 60 13 c33 6 86 22 117 34 l58 21 45 -36 c51 -43 64 -74 96 -250 17
-92 21 -164 25 -440 4 -273 8 -336 21 -367 16 -37 35 -48 48 -28 3 5 -1 23
-10 39 -12 24 -15 72 -15 258 0 324 -26 579 -71 711 -15 44 -16 53 -4 48 8 -3
17 -1 20 3 8 14 173 34 234 28 74 -7 159 -40 205 -80 35 -30 38 -37 46 -107
11 -91 -2 -258 -31 -407 -37 -194 -97 -457 -113 -494 -18 -44 -51 -240 -76
-459 -24 -209 -52 -296 -126 -387 -35 -42 -104 -83 -141 -83 -12 0 -44 12 -73
27 -46 24 -51 29 -45 52 44 171 61 354 45 471 -16 120 -67 339 -85 367 -36 54
-46 4 -21 -96 65 -250 75 -423 38 -609 -24 -117 -53 -182 -97 -220 -43 -36
-168 -92 -206 -92 -38 0 -149 29 -149 40 0 3 18 49 40 101 131 306 178 568
187 1039 6 344 -17 524 -63 478 -10 -11 -10 -31 3 -108 33 -203 18 -670 -33
-962 -26 -155 -96 -364 -173 -518 -39 -78 -89 -106 -191 -104 -63 2 -216 27
-227 38 -2 1 12 36 31 77 94 206 153 415 182 641 13 107 15 174 10 338 -8 235
-13 279 -33 287 -23 9 -30 -13 -22 -65 4 -26 11 -128 14 -227 13 -336 -44
-631 -178 -930 -62 -139 -79 -160 -165 -202 -69 -35 -84 -38 -176 -41 -117 -5
-228 17 -353 69 -70 30 -75 33 -69 58 29 136 36 178 46 255 6 50 10 180 10
290 -1 138 2 200 9 199 6 -2 52 -13 103 -25 114 -26 153 -28 153 -8 0 10 -37
23 -132 45 -73 16 -134 33 -138 36 -3 3 -14 89 -25 190 -19 188 -52 364 -75
408 -10 21 -10 31 4 60 22 49 20 255 -3 376 -21 110 -53 233 -67 258 -6 11 -9
20 -7 22 12 10 269 67 338 74 123 12 305 12 380 0z m-1954 -50 c37 -12 91 -34
119 -50 28 -16 61 -29 73 -29 41 0 85 -88 122 -245 23 -95 60 -342 100 -660
54 -429 70 -550 95 -710 46 -301 57 -413 40 -444 -25 -49 -119 -127 -169 -141
-57 -16 -151 -8 -230 20 -92 31 -92 32 -42 67 92 65 142 206 134 381 -3 74 -9
107 -26 139 -46 88 -141 134 -303 148 l-87 7 -6 37 c-3 20 -6 50 -6 68 l0 32
82 3 c66 2 83 6 86 19 2 13 -10 17 -60 22 -35 3 -82 3 -106 0 l-44 -6 4 -104
c1 -58 7 -107 12 -110 4 -3 59 -9 121 -13 155 -11 229 -45 273 -125 27 -47 23
-251 -6 -329 -42 -113 -91 -154 -202 -166 -68 -8 -511 16 -521 28 -8 9 7 823
20 1092 6 118 15 242 20 275 19 118 41 367 41 463 0 84 -9 137 -36 222 -3 10
10 28 36 49 33 26 62 37 148 56 138 30 230 31 318 4z m894 -4 c41 -8 107 -21
145 -30 39 -9 87 -15 108 -12 48 7 60 -6 86 -85 39 -121 55 -228 55 -368 1
-122 -1 -140 -22 -182 -23 -45 -25 -47 -105 -69 -104 -29 -228 -32 -274 -6
-55 30 -66 64 -62 196 3 98 2 116 -11 116 -10 0 -19 -18 -26 -58 -7 -32 -14
-60 -15 -61 -6 -5 -160 13 -194 23 -38 10 -55 4 -55 -19 0 -23 39 -35 163 -51
82 -11 87 -13 87 -36 0 -34 27 -94 57 -125 51 -53 186 -61 340 -20 39 11 76
16 83 12 26 -16 59 -201 86 -494 12 -131 15 -241 11 -410 -4 -205 -8 -245 -32
-351 -15 -66 -29 -136 -32 -156 -5 -34 -9 -39 -60 -58 -136 -52 -348 -53 -541
-3 -62 16 -115 32 -118 35 -3 3 6 26 21 51 24 42 25 48 15 103 -5 32 -19 126
-30 208 -11 83 -28 211 -39 285 -11 74 -23 159 -26 188 l-7 52 170 0 171 0 5
-52 c3 -29 7 -71 9 -93 1 -28 7 -40 17 -40 13 0 15 20 14 128 -1 107 -4 130
-19 147 -23 25 -36 17 -29 -19 l6 -28 -174 -5 c-95 -3 -174 -5 -174 -4 -1 1
-14 100 -29 221 -73 594 -117 841 -171 946 -14 29 -22 55 -17 60 13 12 230 68
308 78 80 11 195 5 305 -14z m-1974 -45 c-29 -35 -52 -103 -67 -204 -27 -171
32 -264 192 -300 87 -20 118 -20 126 0 8 21 -14 34 -58 34 -59 0 -138 29 -177
65 -37 33 -37 34 -40 124 -3 72 1 105 19 166 27 93 45 108 146 131 103 23 209
16 288 -20 78 -35 101 -58 122 -120 24 -71 20 -270 -12 -551 -28 -249 -45
-680 -45 -1126 l0 -286 -22 -10 c-13 -6 -67 -19 -121 -28 -283 -51 -575 54
-675 242 -19 36 -38 97 -51 158 -24 122 -54 433 -46 468 l7 25 41 -18 c117
-52 356 -52 457 0 71 36 110 104 113 198 2 35 -2 47 -12 47 -9 0 -19 -22 -27
-63 -28 -137 -78 -172 -258 -180 -149 -6 -256 15 -301 62 l-31 31 -11 525 c-6
289 -8 544 -6 568 4 30 11 46 27 54 14 8 85 12 218 13 144 0 200 3 209 13 24
23 21 12 -5 -18z m3694 -2124 c54 -12 55 -13 78 -71 13 -32 33 -103 44 -159
17 -89 19 -127 15 -326 -9 -376 -62 -700 -168 -1027 -41 -126 -112 -250 -194
-342 -79 -87 -234 -161 -344 -163 -58 -2 -124 24 -180 70 l-25 19 37 18 c48
22 119 100 152 165 42 83 67 193 68 305 2 126 -15 205 -67 308 -34 67 -49 86
-87 110 -58 36 -103 40 -107 11 -2 -17 8 -27 50 -47 64 -32 92 -70 125 -174
82 -259 -10 -569 -191 -638 -40 -15 -55 -16 -128 -5 -74 10 -208 39 -216 46
-2 1 4 16 13 34 66 127 63 519 -6 718 -42 121 -115 204 -218 243 -65 26 -167
35 -229 21 -48 -11 -48 -12 -55 54 l-5 41 102 6 c171 10 267 63 302 170 34
102 -1 300 -81 457 -25 49 -25 49 -5 60 11 6 20 20 20 31 0 33 24 32 122 -4
161 -61 302 -80 418 -57 55 10 60 4 60 -70 0 -74 -21 -150 -75 -275 -25 -56
-45 -115 -45 -129 l0 -26 100 0 c82 0 102 3 107 16 10 27 -14 37 -81 35 l-66
-2 11 28 c90 224 92 232 95 346 l3 107 64 44 65 43 84 -19 c46 -10 120 -19
165 -20 74 -2 87 1 140 29 67 37 62 36 133 19z m-2877 -57 c82 -5 169 -9 195
-8 34 1 65 -7 112 -29 56 -27 130 -50 220 -67 23 -4 29 -19 77 -177 64 -211
190 -724 243 -988 35 -174 93 -564 92 -614 -1 -30 -54 -98 -100 -127 -76 -48
-143 -57 -217 -29 l-27 10 29 38 c86 111 122 231 103 348 -17 105 -49 174
-110 236 -60 61 -123 88 -206 88 -47 0 -48 1 -60 108 l-7 62 41 0 c53 0 72 8
72 31 0 16 -8 19 -55 19 -78 0 -115 -21 -115 -64 0 -51 30 -200 42 -207 6 -4
38 -7 72 -7 82 -1 138 -24 186 -79 95 -108 115 -283 47 -418 -30 -60 -87 -135
-103 -135 -8 0 -17 -6 -20 -14 -16 -41 -189 -81 -318 -74 -98 5 -154 31 -191
86 -69 104 -137 327 -190 622 -14 74 -27 149 -30 165 -6 30 -45 407 -66 630
-11 112 -9 192 7 498 l7 118 61 -6 c34 -3 128 -10 209 -16z m871 -54 c201 -61
391 -70 583 -30 31 7 33 5 61 -51 35 -69 66 -166 82 -254 22 -119 -18 -212
-107 -252 -44 -19 -242 -43 -254 -30 -4 4 -11 44 -14 89 l-7 82 41 11 c24 6
41 17 41 25 0 8 -3 15 -7 15 -90 6 -116 4 -121 -9 -6 -15 2 -89 45 -426 13
-110 25 -220 26 -245 l2 -45 45 3 c70 4 98 52 31 52 -27 0 -28 3 -39 68 -17
99 -25 162 -21 162 2 0 31 5 64 10 107 18 231 -23 297 -99 116 -132 164 -527
93 -776 -28 -98 -118 -173 -233 -196 -73 -14 -211 -1 -341 32 -144 36 -153 46
-166 180 -19 205 -84 564 -150 829 -19 74 -52 214 -74 310 -22 96 -62 246 -89
332 -27 87 -47 160 -44 163 3 3 14 5 24 5 22 0 114 45 123 60 9 14 17 13 109
-15z"/>
<path d="M6156 4068 c-3 -7 -9 -53 -15 -103 -6 -49 -16 -125 -23 -168 -9 -61
-9 -80 1 -90 10 -9 15 -8 25 5 15 20 49 276 44 327 -3 35 -24 54 -32 29z"/>
<path d="M4235 4584 c5 -55 9 -125 9 -157 l1 -57 45 6 c111 16 125 20 125 34
0 11 -14 15 -60 16 l-60 1 -8 69 c-19 170 -21 179 -41 182 -18 4 -19 -1 -11
-94z"/>
<path d="M4367 2477 c-6 -17 12 -200 21 -209 4 -4 44 -4 90 -1 71 5 82 8 82
24 0 20 -5 21 -95 23 l-40 1 -10 85 c-8 65 -14 86 -26 88 -9 2 -19 -3 -22 -11z"/>
</g>
</svg>
